<svg width="27" height="28" viewBox="0 0 27 28" fill="none" xmlns="http://www.w3.org/2000/svg">
<path d="M3.9386 11.4318L12.9094 20.1765C13.0669 20.3301 13.2783 20.416 13.4983 20.416C13.7183 20.416 13.9297 20.3301 14.0872 20.1765L23.0614 11.4318C23.1348 11.3603 23.1932 11.2748 23.2331 11.1803C23.273 11.0858 23.2935 10.9843 23.2935 10.8817C23.2935 10.7792 23.273 10.6777 23.2331 10.5832C23.1932 10.4887 23.1348 10.4031 23.0614 10.3316C22.9107 10.1844 22.7084 10.102 22.4977 10.102C22.2871 10.102 22.0848 10.1844 21.9341 10.3316L13.4983 18.5548L5.06417 10.3316C4.91355 10.1849 4.71162 10.1028 4.50139 10.1028C4.29115 10.1028 4.08922 10.1849 3.9386 10.3316C3.86512 10.4031 3.80672 10.4887 3.76684 10.5832C3.72697 10.6777 3.70642 10.7792 3.70642 10.8817C3.70642 10.9843 3.72697 11.0858 3.76684 11.1803C3.80672 11.2748 3.86512 11.3603 3.9386 11.4318Z" fill="black"/>
</svg>
